<?xml version="1.0" encoding="utf-8"?>
<!-- Generator: Adobe Illustrator 16.0.0, SVG Export Plug-In . SVG Version: 6.00 Build 0)  -->
<!DOCTYPE svg PUBLIC "-//W3C//DTD SVG 1.1//EN" "http://www.w3.org/Graphics/SVG/1.1/DTD/svg11.dtd">
<svg version="1.1" id="Calque_1" xmlns="http://www.w3.org/2000/svg" xmlns:xlink="http://www.w3.org/1999/xlink" x="0px" y="0px"
	 width="507px" height="560px" viewBox="0 0 507 560" enable-background="new 0 0 507 560" xml:space="preserve">
<g>
	<g>
		<line fill="none" stroke="#000000" stroke-width="6" stroke-linejoin="bevel" x1="114" y1="295" x2="118" y2="295"/>
		
			<line fill="none" stroke="#000000" stroke-width="6" stroke-linejoin="bevel" stroke-dasharray="8,8" x1="126" y1="295" x2="403" y2="295"/>
		<line fill="none" stroke="#000000" stroke-width="6" stroke-linejoin="bevel" x1="407" y1="295" x2="411" y2="295"/>
		<g>
			<circle cx="114.211" cy="294.5" r="11.837"/>
		</g>
		<g>
			<polygon points="409,275.375 409,313.624 428.118,294.502 			"/>
		</g>
	</g>
</g>
<g>
	<path fill="#FF8300" d="M200.404,167.054v49.253h12.555v24.627h-13.521v5.312h7.726v28.168h-46.678v-28.168h9.335v-5.312h-42.332
		V220.17l40.079-53.116H200.404z M190.585,176.228h-19.637l-33.962,45.069v11.428h40.723v22.213h-7.887v10.141h28.007v-10.141
		h-7.243v-22.213h13.842v-8.37h-13.842V176.228z M177.87,185.563v38.147h-30.421l28.812-38.147H177.87z M170.465,205.684
		l-8.048,10.623h8.048V205.684z"/>
	<path fill="#FF8300" d="M301.486,186.047v69.534l-19.154,18.832H243.38l-18.671-18.832v-69.534l18.671-18.993h39.757
		L301.486,186.047z M291.989,189.749l-12.876-13.521h-31.388l-13.681,13.521v61.647l13.681,13.682h30.261l14.003-13.682V189.749z
		 M278.952,192.163v56.818l-6.438,6.6h-18.993l-6.438-6.6v-56.818l6.438-6.116h19.476L278.952,192.163z M269.294,195.061h-12.876
		v51.185h12.876V195.061z"/>
	<path fill="#FF8300" d="M380.678,167.054v49.253h12.555v24.627h-13.521v5.312h7.727v28.168H340.76v-28.168h9.336v-5.312h-42.333
		V220.17l40.079-53.116H380.678z M370.859,176.228h-19.638l-33.962,45.069v11.428h40.723v22.213h-7.887v10.141h28.007v-10.141
		h-7.243v-22.213h13.843v-8.37h-13.843V176.228z M358.144,185.563v38.147h-30.422l28.813-38.147H358.144z M350.739,205.684
		l-8.048,10.623h8.048V205.684z"/>
</g>
<g>
	<rect x="119" y="317" fill="#FF8300" width="288" height="41"/>
	<g>
		<path fill="#FFFFFF" d="M141.708,352.273V333.57h-2.865V330.6h6.205v2.672c1.664-1.957,3.68-2.936,6.047-2.936
			c2.391,0,4.368,0.82,5.933,2.461s2.347,3.773,2.347,6.398c0,2.754-0.85,4.928-2.549,6.521s-3.633,2.391-5.801,2.391
			c-2.25,0-4.242-0.867-5.977-2.602v6.768h3.305v2.971h-9.756v-2.971H141.708z M144.996,339.354c0,0.938,0.193,1.834,0.58,2.689
			s1.002,1.573,1.846,2.153s1.834,0.87,2.971,0.87c1.594,0,2.909-0.533,3.946-1.6s1.556-2.531,1.556-4.395
			c0-1.816-0.542-3.234-1.626-4.254s-2.317-1.529-3.7-1.529c-1.477,0-2.774,0.554-3.894,1.661S144.996,337.525,144.996,339.354z"/>
		<path fill="#FFFFFF" d="M179.501,344.645v2.971h-5.836v-2.074c-1.617,1.57-3.422,2.355-5.414,2.355
			c-1.547,0-2.892-0.504-4.034-1.512s-1.714-2.297-1.714-3.867c0-1.582,0.606-2.895,1.819-3.938s2.675-1.564,4.386-1.564
			c1.594,0,3.135,0.48,4.623,1.441v-1.688c0-0.867-0.082-1.535-0.246-2.004s-0.548-0.891-1.151-1.266s-1.392-0.563-2.364-0.563
			c-1.676,0-2.889,0.668-3.639,2.004l-3.199-0.844c1.418-2.648,3.867-3.973,7.348-3.973c1.277,0,2.382,0.173,3.313,0.519
			s1.626,0.791,2.083,1.336s0.765,1.134,0.923,1.767s0.237,1.641,0.237,3.023v7.875H179.501z M173.332,341.287
			c-1.441-1.125-2.9-1.688-4.377-1.688c-0.926,0-1.699,0.27-2.32,0.809s-0.932,1.236-0.932,2.092c0,0.797,0.272,1.465,0.817,2.004
			s1.286,0.809,2.224,0.809c1.617,0,3.146-0.68,4.588-2.039V341.287z"/>
		<path fill="#FFFFFF" d="M202.054,330.6v2.971h-3.059v12.674c0,1.711-0.088,2.979-0.264,3.806s-0.601,1.67-1.274,2.531
			s-1.685,1.585-3.032,2.171s-2.854,0.879-4.518,0.879c-2.508,0-4.746-0.756-6.715-2.268l2.18-2.426
			c1.477,1.148,3.082,1.723,4.816,1.723c0.961,0,1.852-0.185,2.672-0.554s1.433-0.817,1.837-1.345s0.665-1.028,0.782-1.503
			s0.176-1.274,0.176-2.399v-1.547c-0.527,0.668-1.354,1.301-2.479,1.898s-2.355,0.896-3.691,0.896
			c-2.438,0-4.424-0.844-5.959-2.531s-2.303-3.762-2.303-6.223c0-2.695,0.847-4.872,2.54-6.53s3.653-2.487,5.88-2.487
			c2.25,0,4.254,0.896,6.012,2.689V330.6H202.054z M184.775,339.283c0,1.723,0.501,3.129,1.503,4.219s2.282,1.635,3.841,1.635
			c1.523,0,2.836-0.548,3.938-1.644s1.652-2.505,1.652-4.228c0-1.746-0.551-3.149-1.652-4.21s-2.379-1.591-3.832-1.591
			s-2.725,0.524-3.814,1.573S184.775,337.502,184.775,339.283z"/>
		<path fill="#FFFFFF" d="M221.039,339.951H206.73c0.211,1.57,0.832,2.842,1.863,3.814s2.35,1.459,3.955,1.459
			c2.332,0,4.178-0.938,5.537-2.813l2.953,1.301c-0.961,1.488-2.209,2.593-3.744,3.313s-3.141,1.081-4.816,1.081
			c-2.602,0-4.825-0.812-6.671-2.435s-2.769-3.812-2.769-6.565c0-2.613,0.899-4.764,2.698-6.451s3.864-2.531,6.196-2.531
			c2.285,0,4.356,0.823,6.214,2.47S220.968,336.693,221.039,339.951z M217.593,337.525c-0.234-1.195-0.855-2.276-1.863-3.243
			s-2.244-1.45-3.709-1.45c-1.336,0-2.479,0.437-3.428,1.31s-1.529,2.001-1.74,3.384H217.593z"/>
		<path fill="#FFFFFF" d="M238.669,330.6v2.057c2.145-1.547,4.102-2.32,5.871-2.32c1.102,0,2.013,0.261,2.733,0.782
			s1.192,1.16,1.415,1.916s0.334,1.86,0.334,3.313v8.297h2.865v2.971h-6.205v-11.127c0-1.289-0.193-2.13-0.58-2.522
			s-0.861-0.589-1.424-0.589c-1.477,0-3.146,0.721-5.01,2.162v9.105h2.936v2.971h-9.264v-2.971h2.988V333.57h-2.988V330.6H238.669z"
			/>
		<path fill="#FFFFFF" d="M253.382,339.107c0-2.625,0.867-4.778,2.602-6.46s3.85-2.522,6.346-2.522c2.449,0,4.553,0.829,6.311,2.487
			c1.758,1.658,2.637,3.823,2.637,6.495s-0.877,4.84-2.628,6.504c-1.752,1.664-3.858,2.496-6.319,2.496
			c-2.531,0-4.655-0.844-6.372-2.531S253.382,341.732,253.382,339.107z M256.916,339.099c0,1.68,0.524,3.056,1.573,4.129
			s2.329,1.61,3.841,1.61c1.535,0,2.821-0.542,3.858-1.628c1.037-1.085,1.556-2.455,1.556-4.111c0-1.668-0.527-3.041-1.582-4.12
			s-2.332-1.619-3.832-1.619c-1.57,0-2.865,0.552-3.885,1.654S256.916,337.478,256.916,339.099z"/>
		<path fill="#FFFFFF" d="M273.738,333.57V330.6h2.215v-2.619l3.34-3.059v5.678h3.146v2.971h-3.146v8.262
			c0,1.324,0.072,2.142,0.219,2.452s0.514,0.466,1.1,0.466c0.621,0,1.23-0.117,1.828-0.352v3.041
			c-0.855,0.305-1.711,0.457-2.566,0.457c-1.02,0-1.846-0.226-2.479-0.677s-1.031-1.017-1.195-1.696s-0.246-1.852-0.246-3.516
			v-8.438H273.738z"/>
		<path fill="#FFFFFF" d="M295.975,344.645v-11.092h-2.479V330.6h2.479v-2.455c0-2.07,0.439-3.499,1.318-4.289
			c0.879-0.789,1.916-1.184,3.111-1.184c2.578,0,4.072,1.307,4.482,3.92l-2.971,0.457c-0.117-1.09-0.545-1.635-1.283-1.635
			c-0.504,0-0.85,0.173-1.037,0.517c-0.188,0.345-0.281,1.084-0.281,2.216v2.453h2.918v2.953h-2.918v11.092h3.234v2.971h-9.053
			v-2.971H295.975z"/>
		<path fill="#FFFFFF" d="M305.115,339.107c0-2.625,0.867-4.778,2.602-6.46s3.85-2.522,6.346-2.522c2.449,0,4.553,0.829,6.311,2.487
			s2.637,3.823,2.637,6.495s-0.877,4.84-2.629,6.504s-3.857,2.496-6.318,2.496c-2.531,0-4.656-0.844-6.373-2.531
			S305.115,341.732,305.115,339.107z M308.648,339.099c0,1.68,0.523,3.056,1.572,4.129s2.33,1.61,3.842,1.61
			c1.535,0,2.82-0.542,3.857-1.628c1.037-1.085,1.557-2.455,1.557-4.111c0-1.668-0.527-3.041-1.582-4.12s-2.332-1.619-3.832-1.619
			c-1.57,0-2.865,0.552-3.885,1.654S308.648,337.478,308.648,339.099z"/>
		<path fill="#FFFFFF" d="M344.297,344.645v2.971h-6.275v-1.951c-1.957,1.488-3.832,2.232-5.625,2.232
			c-1.137,0-2.078-0.249-2.822-0.747s-1.238-1.143-1.484-1.934s-0.369-2.065-0.369-3.823v-7.822h-2.408V330.6h5.748v10.371
			c0,1.254,0.035,2.098,0.105,2.531s0.275,0.791,0.615,1.072s0.768,0.422,1.283,0.422c1.547,0,3.199-0.738,4.957-2.215v-9.211
			h-3.006V330.6h6.346v14.045H344.297z"/>
		<path fill="#FFFFFF" d="M351.943,330.6v2.057c2.145-1.547,4.102-2.32,5.871-2.32c1.102,0,2.012,0.261,2.732,0.782
			s1.193,1.16,1.416,1.916s0.334,1.86,0.334,3.313v8.297h2.865v2.971h-6.205v-11.127c0-1.289-0.193-2.13-0.58-2.522
			s-0.861-0.589-1.424-0.589c-1.477,0-3.146,0.721-5.01,2.162v9.105h2.936v2.971h-9.264v-2.971h2.988V333.57h-2.988V330.6H351.943z"
			/>
		<path fill="#FFFFFF" d="M387.697,344.645v2.971h-6.398v-2.496c-1.664,1.852-3.691,2.777-6.082,2.777
			c-2.215,0-4.16-0.756-5.836-2.268s-2.514-3.662-2.514-6.451c0-2.801,0.861-5.01,2.584-6.627s3.668-2.426,5.836-2.426
			c2.297,0,4.301,0.914,6.012,2.742v-6.732h-3.27v-2.971h6.609v21.48H387.697z M370.436,339.09c0,1.875,0.529,3.316,1.59,4.324
			s2.33,1.512,3.807,1.512c1.43,0,2.697-0.53,3.805-1.591s1.662-2.528,1.662-4.403c0-1.887-0.566-3.311-1.697-4.271
			s-2.398-1.441-3.805-1.441c-1.512,0-2.783,0.565-3.814,1.696S370.436,337.438,370.436,339.09z"/>
	</g>
</g>
<g>
	<path d="M231.028,416.593c0-0.759,0.15-1.52,0.45-2.28c0.3-0.759,0.75-1.439,1.35-2.039c0.6-0.601,1.32-1.09,2.16-1.471
		c0.84-0.379,1.8-0.57,2.88-0.57s2.049,0.171,2.91,0.51c0.859,0.341,1.609,0.801,2.25,1.381c0.639,0.58,1.129,1.26,1.47,2.04
		c0.339,0.78,0.51,1.59,0.51,2.43c0,1.681-0.641,3.13-1.92,4.351c-1.281,1.221-3.021,1.83-5.22,1.83c-0.96,0-1.86-0.181-2.7-0.541
		c-0.84-0.359-1.57-0.818-2.19-1.379c-0.621-0.561-1.101-1.21-1.44-1.951C231.198,418.163,231.028,417.394,231.028,416.593z
		 M231.268,392.173v-11.399h14.34v11.399l-3.18,15.12h-7.92L231.268,392.173z"/>
	<path d="M255.508,416.593c0-0.759,0.15-1.52,0.45-2.28c0.3-0.759,0.75-1.439,1.35-2.039c0.6-0.601,1.32-1.09,2.16-1.471
		c0.84-0.379,1.8-0.57,2.88-0.57s2.049,0.171,2.91,0.51c0.859,0.341,1.609,0.801,2.25,1.381c0.639,0.58,1.129,1.26,1.47,2.04
		c0.339,0.78,0.51,1.59,0.51,2.43c0,1.681-0.641,3.13-1.92,4.351c-1.281,1.221-3.021,1.83-5.22,1.83c-0.96,0-1.86-0.181-2.7-0.541
		c-0.84-0.359-1.57-0.818-2.19-1.379c-0.621-0.561-1.101-1.21-1.44-1.951C255.678,418.163,255.508,417.394,255.508,416.593z
		 M255.748,392.173v-11.399h14.34v11.399l-3.18,15.12h-7.92L255.748,392.173z"/>
	<path d="M279.988,416.593c0-0.759,0.15-1.52,0.449-2.28c0.301-0.759,0.75-1.439,1.352-2.039c0.6-0.601,1.318-1.09,2.158-1.471
		c0.842-0.379,1.801-0.57,2.881-0.57s2.049,0.171,2.91,0.51c0.859,0.341,1.609,0.801,2.25,1.381c0.639,0.58,1.129,1.26,1.471,2.04
		c0.338,0.78,0.51,1.59,0.51,2.43c0,1.681-0.641,3.13-1.92,4.351c-1.281,1.221-3.021,1.83-5.221,1.83
		c-0.961,0-1.859-0.181-2.699-0.541c-0.84-0.359-1.57-0.818-2.191-1.379c-0.619-0.561-1.1-1.21-1.439-1.951
		C280.158,418.163,279.988,417.394,279.988,416.593z M280.229,392.173v-11.399h14.34v11.399l-3.18,15.12h-7.92L280.229,392.173z"/>
</g>
</svg>
