<?xml version="1.0" encoding="utf-8"?>
<!-- Generator: Adobe Illustrator 16.0.0, SVG Export Plug-In . SVG Version: 6.00 Build 0)  -->
<!DOCTYPE svg PUBLIC "-//W3C//DTD SVG 1.1//EN" "http://www.w3.org/Graphics/SVG/1.1/DTD/svg11.dtd">
<svg version="1.1" id="Calque_1" xmlns="http://www.w3.org/2000/svg" xmlns:xlink="http://www.w3.org/1999/xlink" x="0px" y="0px"
	 width="507px" height="560px" viewBox="0 0 507 560" enable-background="new 0 0 507 560" xml:space="preserve">
<g>
	<g>
		<line fill="none" stroke="#000000" stroke-width="6" stroke-linejoin="bevel" x1="114" y1="295" x2="118" y2="295"/>
		
			<line fill="none" stroke="#000000" stroke-width="6" stroke-linejoin="bevel" stroke-dasharray="8,8" x1="126" y1="295" x2="403" y2="295"/>
		<line fill="none" stroke="#000000" stroke-width="6" stroke-linejoin="bevel" x1="407" y1="295" x2="411" y2="295"/>
		<g>
			<circle cx="114.211" cy="294.5" r="11.837"/>
		</g>
		<g>
			<polygon points="409,275.375 409,313.624 428.118,294.502 			"/>
		</g>
	</g>
</g>
<g>
	<path fill="#FF8300" d="M207.969,167.054v27.202h-39.435v7.726h27.846l15.774,15.935v37.665l-18.993,18.832h-39.113l-18.671-18.832
		v-23.983h31.87v14.647h12.876v-20.12h-42.654v-59.072H207.969z M198.15,176.228h-51.024v41.045h36.216l6.6,6.921v24.949l-6.6,6.438
		h-19.637l-5.956-6.438v-9.336h-12.877v11.911l12.877,13.36h31.387l13.521-13.36V221.78l-12.716-12.555h-30.904v-23.178h39.113
		V176.228z"/>
	<path fill="#FF8300" d="M300.681,186.047v69.535l-19.154,18.832h-38.952l-18.671-18.832v-69.535l18.671-18.993h39.756
		L300.681,186.047z M291.185,189.749l-12.877-13.521H246.92l-13.681,13.521v61.647l13.681,13.682h30.26l14.004-13.682V189.749z
		 M278.147,192.163v56.819l-6.439,6.6h-18.993l-6.438-6.6v-56.819l6.438-6.116h19.475L278.147,192.163z M268.489,195.061h-12.877
		v51.185h12.877V195.061z"/>
	<path fill="#FF8300" d="M390.818,186.047v69.535l-19.154,18.832h-38.952l-18.671-18.832v-69.535l18.671-18.993h39.757
		L390.818,186.047z M381.321,189.749l-12.876-13.521h-31.388l-13.682,13.521v61.647l13.682,13.682h30.261l14.003-13.682V189.749z
		 M368.284,192.163v56.819l-6.438,6.6h-18.993l-6.438-6.6v-56.819l6.438-6.116h19.476L368.284,192.163z M358.626,195.061H345.75
		v51.185h12.876V195.061z"/>
</g>
<g>
	<rect x="119" y="317" fill="#FF8300" width="288" height="41"/>
	<g>
		<path fill="#FFFFFF" d="M155.182,344.645V333.57h-2.637V330.6h5.977v14.045h2.637v2.971h-8.613v-2.971H155.182z M154.708,324.816
			c0-0.539,0.19-1.008,0.571-1.406s0.864-0.598,1.45-0.598c0.551,0,1.025,0.193,1.424,0.58s0.598,0.861,0.598,1.424
			s-0.199,1.04-0.598,1.433s-0.873,0.589-1.424,0.589c-0.563,0-1.04-0.199-1.433-0.598S154.708,325.367,154.708,324.816z"/>
		<path fill="#FFFFFF" d="M169.174,330.6v2.057c2.145-1.547,4.102-2.32,5.871-2.32c1.102,0,2.013,0.261,2.733,0.782
			s1.192,1.16,1.415,1.916s0.334,1.86,0.334,3.313v8.297h2.865v2.971h-6.205v-11.127c0-1.289-0.193-2.13-0.58-2.522
			s-0.861-0.589-1.424-0.589c-1.477,0-3.146,0.721-5.01,2.162v9.105h2.936v2.971h-9.264v-2.971h2.988V333.57h-2.988V330.6H169.174z"
			/>
		<path fill="#FFFFFF" d="M183.606,333.57V330.6h2.215v-2.619l3.34-3.059v5.678h3.146v2.971h-3.146v8.262
			c0,1.324,0.073,2.142,0.22,2.452s0.513,0.466,1.099,0.466c0.621,0,1.23-0.117,1.828-0.352v3.041
			c-0.855,0.305-1.711,0.457-2.566,0.457c-1.02,0-1.846-0.226-2.479-0.677s-1.031-1.017-1.195-1.696s-0.246-1.852-0.246-3.516
			v-8.438H183.606z"/>
		<path fill="#FFFFFF" d="M212.68,339.951h-14.309c0.211,1.57,0.832,2.842,1.863,3.814s2.35,1.459,3.955,1.459
			c2.332,0,4.178-0.938,5.537-2.813l2.953,1.301c-0.961,1.488-2.209,2.593-3.744,3.313s-3.141,1.081-4.816,1.081
			c-2.602,0-4.825-0.812-6.671-2.435s-2.769-3.812-2.769-6.565c0-2.613,0.899-4.764,2.698-6.451s3.864-2.531,6.196-2.531
			c2.285,0,4.356,0.823,6.214,2.47S212.61,336.693,212.68,339.951z M209.235,337.525c-0.234-1.195-0.855-2.276-1.863-3.243
			s-2.244-1.45-3.709-1.45c-1.336,0-2.479,0.437-3.428,1.31s-1.529,2.001-1.74,3.384H209.235z"/>
		<path fill="#FFFFFF" d="M218.235,344.645V333.57h-3.428V330.6h6.1v3.832c0.375-0.996,0.896-1.822,1.564-2.479
			s1.374-1.09,2.118-1.301s1.761-0.316,3.05-0.316h0.879v3.375h-0.668c-1.699,0-2.968,0.17-3.806,0.51s-1.459,0.958-1.863,1.854
			s-0.606,2.505-0.606,4.825v3.744h3.709v2.971h-10.477v-2.971H218.235z"/>
		<path fill="#FFFFFF" d="M237.395,330.6v2.057c2.145-1.547,4.102-2.32,5.871-2.32c1.102,0,2.013,0.261,2.733,0.782
			s1.192,1.16,1.415,1.916s0.334,1.86,0.334,3.313v8.297h2.865v2.971h-6.205v-11.127c0-1.289-0.193-2.13-0.58-2.522
			s-0.861-0.589-1.424-0.589c-1.477,0-3.146,0.721-5.01,2.162v9.105h2.936v2.971h-9.264v-2.971h2.988V333.57h-2.988V330.6H237.395z"
			/>
		<path fill="#FFFFFF" d="M269.387,344.645v2.971h-5.836v-2.074c-1.617,1.57-3.422,2.355-5.414,2.355
			c-1.547,0-2.892-0.504-4.034-1.512s-1.714-2.297-1.714-3.867c0-1.582,0.606-2.895,1.819-3.938s2.675-1.564,4.386-1.564
			c1.594,0,3.135,0.48,4.623,1.441v-1.688c0-0.867-0.082-1.535-0.246-2.004s-0.548-0.891-1.151-1.266s-1.392-0.563-2.364-0.563
			c-1.676,0-2.889,0.668-3.639,2.004l-3.199-0.844c1.418-2.648,3.867-3.973,7.348-3.973c1.277,0,2.382,0.173,3.313,0.519
			s1.626,0.791,2.083,1.336s0.765,1.134,0.923,1.767s0.237,1.641,0.237,3.023v7.875H269.387z M263.217,341.287
			c-1.441-1.125-2.9-1.688-4.377-1.688c-0.926,0-1.699,0.27-2.32,0.809s-0.932,1.236-0.932,2.092c0,0.797,0.272,1.465,0.817,2.004
			s1.286,0.809,2.224,0.809c1.617,0,3.146-0.68,4.588-2.039V341.287z"/>
		<path fill="#FFFFFF" d="M273.588,344.645v-18.51h-3.023v-2.971h6.363v21.48h2.602v2.971h-8.965v-2.971H273.588z"/>
		<path fill="#FFFFFF" d="M308.656,339.951h-14.309c0.211,1.57,0.832,2.842,1.863,3.814s2.35,1.459,3.955,1.459
			c2.332,0,4.178-0.938,5.537-2.813l2.953,1.301c-0.961,1.488-2.209,2.593-3.744,3.313s-3.141,1.081-4.816,1.081
			c-2.602,0-4.824-0.812-6.67-2.435s-2.77-3.812-2.77-6.565c0-2.613,0.9-4.764,2.699-6.451s3.863-2.531,6.195-2.531
			c2.285,0,4.357,0.823,6.215,2.47S308.586,336.693,308.656,339.951z M305.211,337.525c-0.234-1.195-0.855-2.276-1.863-3.243
			s-2.244-1.45-3.709-1.45c-1.336,0-2.479,0.437-3.428,1.31s-1.529,2.001-1.74,3.384H305.211z"/>
		<path fill="#FFFFFF" d="M314.211,344.645V333.57h-3.428V330.6h6.1v3.832c0.375-0.996,0.896-1.822,1.564-2.479
			s1.375-1.09,2.119-1.301s1.76-0.316,3.049-0.316h0.879v3.375h-0.668c-1.699,0-2.967,0.17-3.805,0.51s-1.459,0.958-1.863,1.854
			s-0.607,2.505-0.607,4.825v3.744h3.709v2.971h-10.477v-2.971H314.211z"/>
		<path fill="#FFFFFF" d="M329.768,344.645V333.57h-3.428V330.6h6.1v3.832c0.375-0.996,0.896-1.822,1.564-2.479
			s1.375-1.09,2.119-1.301s1.76-0.316,3.049-0.316h0.879v3.375h-0.668c-1.699,0-2.967,0.17-3.805,0.51s-1.459,0.958-1.863,1.854
			s-0.607,2.505-0.607,4.825v3.744h3.709v2.971H326.34v-2.971H329.768z"/>
		<path fill="#FFFFFF" d="M340.49,339.107c0-2.625,0.867-4.778,2.602-6.46s3.85-2.522,6.346-2.522c2.449,0,4.553,0.829,6.311,2.487
			s2.637,3.823,2.637,6.495s-0.875,4.84-2.627,6.504s-3.859,2.496-6.32,2.496c-2.531,0-4.654-0.844-6.371-2.531
			S340.49,341.732,340.49,339.107z M344.023,339.099c0,1.68,0.525,3.056,1.574,4.129s2.328,1.61,3.84,1.61
			c1.535,0,2.822-0.542,3.859-1.628c1.037-1.085,1.555-2.455,1.555-4.111c0-1.668-0.527-3.041-1.582-4.12s-2.332-1.619-3.832-1.619
			c-1.57,0-2.865,0.552-3.885,1.654S344.023,337.478,344.023,339.099z"/>
		<path fill="#FFFFFF" d="M363.975,344.645V333.57h-3.428V330.6h6.1v3.832c0.375-0.996,0.896-1.822,1.564-2.479
			s1.375-1.09,2.119-1.301s1.76-0.316,3.049-0.316h0.879v3.375h-0.668c-1.699,0-2.967,0.17-3.805,0.51s-1.459,0.958-1.863,1.854
			s-0.607,2.505-0.607,4.825v3.744h3.709v2.971h-10.477v-2.971H363.975z"/>
	</g>
</g>
<g>
	<path d="M233.789,413.693l-7.56-4.86l7.26-9.54l-7.26-9.6l7.56-4.74l10.68,14.34L233.789,413.693z"/>
	<path d="M254.308,396.413h17.401v7.979h-17.401V396.413z"/>
	<path d="M292.527,384.953l7.561,4.74l-7.262,9.6l7.262,9.54l-7.561,4.86l-10.68-14.4L292.527,384.953z"/>
</g>
</svg>
