<?xml version="1.0" encoding="utf-8"?>
<!-- Generator: Adobe Illustrator 16.0.0, SVG Export Plug-In . SVG Version: 6.00 Build 0)  -->
<!DOCTYPE svg PUBLIC "-//W3C//DTD SVG 1.1//EN" "http://www.w3.org/Graphics/SVG/1.1/DTD/svg11.dtd">
<svg version="1.1" id="Calque_1" xmlns="http://www.w3.org/2000/svg" xmlns:xlink="http://www.w3.org/1999/xlink" x="0px" y="0px"
	 width="507px" height="560px" viewBox="0 0 507 560" enable-background="new 0 0 507 560" xml:space="preserve">
<g>
	<path fill="#FFFFFF" d="M139.132,184.477l16.44,10.487l-5.692,8.923l-8.093-5.163l-3.252,5.099l27.442,17.505l3.213-5.038
		l8.41,5.364l-14.404,22.581l-8.41-5.364l3.175-4.978l-27.442-17.505l-3.33,5.221l8.094,5.163l-5.692,8.923l-16.44-10.487
		L139.132,184.477z"/>
	<path fill="#FFFFFF" d="M150.762,172.378l19.395-13.092c3.461-2.336,6.49-3.897,9.086-4.686c2.596-0.787,4.892-1.009,6.889-0.669
		c1.997,0.342,3.729,1.148,5.195,2.42c1.467,1.272,2.802,2.8,4.005,4.581c0.812,1.202,1.348,2.469,1.609,3.8
		c0.261,1.332,0.264,2.643,0.005,3.933c-0.258,1.291-0.74,2.551-1.444,3.78c-0.705,1.23-1.618,2.345-2.739,3.342
		c1.146-0.532,2.362-0.854,3.646-0.968c1.284-0.112,2.551-0.017,3.798,0.286c1.248,0.305,2.425,0.806,3.535,1.505
		c1.109,0.7,2.042,1.608,2.797,2.728c0.896,1.327,1.693,2.295,2.396,2.906c0.702,0.612,1.332,0.73,1.889,0.354
		c0.915-0.618,0.925-1.589,0.03-2.916l-1.385-2.051l3.998-2.699l2.308,3.419c0.867,1.285,1.567,2.623,2.1,4.012
		c0.533,1.391,0.769,2.77,0.708,4.137c-0.061,1.369-0.46,2.708-1.196,4.02c-0.736,1.312-1.94,2.531-3.611,3.659
		c-3.938,2.659-7.539,3.611-10.799,2.855c-3.26-0.754-6.121-2.956-8.583-6.603c-0.951-1.409-1.794-2.529-2.529-3.36
		c-0.734-0.831-1.486-1.364-2.253-1.601c-0.767-0.235-1.619-0.188-2.555,0.141c-0.936,0.331-2.06,0.938-3.373,1.824l6.504,9.635
		l3.641-2.458l5.539,8.206l-19.275,13.011l-5.539-8.205l3.342-2.256l-18.295-27.103l-3.342,2.256L150.762,172.378z M171.852,169.905
		l7.133,10.568l2.686-1.813c1.75-1.181,2.855-2.545,3.317-4.094c0.461-1.547,0.132-3.15-0.987-4.809
		c-1.259-1.865-2.664-2.937-4.214-3.218c-1.55-0.279-3.201,0.17-4.952,1.352L171.852,169.905z"/>
	<path fill="#FFFFFF" d="M243.608,186.492c-3.698,0.586-7.201,0.56-10.51-0.08c-3.309-0.639-6.27-1.916-8.882-3.831
		c-2.612-1.914-4.819-4.487-6.619-7.721c-1.801-3.232-3.069-7.17-3.806-11.813c-0.634-4-0.609-7.75,0.075-11.25
		c0.684-3.5,1.938-6.622,3.763-9.368c1.825-2.744,4.162-5.014,7.012-6.808c2.85-1.793,6.124-2.984,9.822-3.57
		c4.361-0.692,8.246-0.636,11.654,0.164c3.408,0.801,6.355,2.232,8.846,4.292c2.489,2.062,4.513,4.714,6.074,7.959
		c1.56,3.246,2.668,6.942,3.327,11.091c0.666,4.198,0.717,8.049,0.156,11.556c-0.563,3.506-1.725,6.589-3.49,9.249
		c-1.765,2.66-4.103,4.854-7.012,6.58C251.106,184.669,247.637,185.853,243.608,186.492z M241.763,174.863
		c1.138-0.181,2.086-0.71,2.846-1.591c0.759-0.879,1.354-2.037,1.782-3.472c0.429-1.435,0.66-3.116,0.694-5.046
		c0.034-1.929-0.133-4.053-0.501-6.375c-0.36-2.271-0.85-4.357-1.467-6.26c-0.618-1.901-1.362-3.53-2.233-4.885
		c-0.871-1.354-1.871-2.373-3-3.055c-1.129-0.681-2.381-0.914-3.755-0.695c-1.091,0.173-2.014,0.712-2.769,1.616
		c-0.756,0.905-1.344,2.1-1.765,3.583c-0.42,1.485-0.656,3.218-0.706,5.2c-0.05,1.982,0.105,4.11,0.465,6.381
		c0.384,2.42,0.932,4.574,1.645,6.46c0.711,1.888,1.521,3.468,2.429,4.74c0.906,1.274,1.904,2.204,2.994,2.791
		C239.511,174.84,240.625,175.043,241.763,174.863z"/>
	<path fill="#FFFFFF" d="M274.852,130.106l22.176,5.701l-2.408,9.371l-3.766-0.968l-4.035,15.69
		c-0.746,2.905-1.205,5.317-1.375,7.235c-0.172,1.918-0.09,3.476,0.248,4.672c0.336,1.197,0.885,2.099,1.645,2.708
		c0.762,0.609,1.699,1.056,2.814,1.343c1.07,0.275,2.074,0.366,3.016,0.272c0.941-0.094,1.854-0.556,2.736-1.388
		c0.883-0.831,1.727-2.137,2.531-3.918c0.803-1.78,1.611-4.244,2.42-7.393l3.959-15.399l-3.766-0.968l2.465-9.588l20.641,5.307
		l-2.408,9.37l-3.766-0.968l-4.537,17.651c-2.217,8.62-5.539,14.503-9.965,17.65c-4.428,3.147-9.918,3.878-16.473,2.193
		c-7.004-2.06-11.836-5.533-14.492-10.424c-2.659-4.891-2.923-11.477-0.795-19.757l4.613-17.942l-3.906-1.003L274.852,130.106z"/>
	<path fill="#FFFFFF" d="M335.276,192.813c0.702-0.787,1.732-1.735,3.091-2.844c1.358-1.109,2.911-2.199,4.66-3.27l14.994-9.243
		l-3.01-2.228l5.802-7.836l16.377,12.124l-5.802,7.836l-2.835-2.099l-39.28,24.018l-10.647-7.882l10.056-45.652l-3.183-2.356
		l5.801-7.836l21.354,15.808l-5.801,7.836l-3.183-2.356l-5.077,17.144c-0.638,1.83-1.262,3.499-1.87,5.007
		c-0.61,1.508-1.188,2.713-1.735,3.615L335.276,192.813z"/>
	<path fill="#FFFFFF" d="M383.651,188.46l22.775,36.962l-14.111,8.695l-6.534-10.604l5.683-3.501l-6.044-9.808l-8.812,5.429
		l7.177,11.647l-8.492,5.232l-7.177-11.646l-10.407,6.413l6.043,9.808l5.938-3.659l6.534,10.604l-14.431,8.892l-22.775-36.963
		l8.492-5.232l2.38,3.862l27.711-17.076l-2.379-3.861L383.651,188.46z"/>
</g>
<g>
	<path fill="#FFFFFF" d="M233.451,227.092v15.6h-8.82v-7.68h-5.04v26.04h4.98v7.98h-22.32v-7.98h4.92v-26.04h-5.16v7.68h-8.82v-15.6
		H233.451z"/>
	<path fill="#FFFFFF" d="M256.73,270.112c-3.12,0-6-0.46-8.64-1.38c-2.64-0.92-4.911-2.3-6.81-4.14
		c-1.9-1.839-3.381-4.149-4.44-6.93c-1.061-2.78-1.59-6.05-1.59-9.81c0-3.24,0.51-6.2,1.53-8.88c1.02-2.679,2.46-4.989,4.32-6.93
		c1.86-1.939,4.08-3.439,6.66-4.5c2.58-1.059,5.43-1.59,8.55-1.59c3.68,0,6.87,0.531,9.57,1.59c2.7,1.061,4.94,2.561,6.72,4.5
		c1.779,1.941,3.1,4.29,3.961,7.05c0.859,2.76,1.289,5.82,1.289,9.18c0,3.4-0.46,6.45-1.379,9.15c-0.922,2.7-2.281,4.99-4.08,6.87
		c-1.801,1.881-4.011,3.321-6.63,4.32C263.14,269.612,260.129,270.112,256.73,270.112z M256.73,260.692c0.96,0,1.81-0.3,2.55-0.9
		c0.74-0.6,1.38-1.44,1.92-2.52c0.54-1.08,0.95-2.379,1.23-3.9c0.279-1.52,0.42-3.219,0.42-5.1c0-1.84-0.13-3.55-0.39-5.13
		c-0.26-1.58-0.66-2.959-1.2-4.14c-0.54-1.18-1.23-2.109-2.07-2.79c-0.84-0.68-1.84-1.02-3-1.02c-0.92,0-1.75,0.31-2.49,0.93
		c-0.741,0.621-1.38,1.491-1.92,2.61c-0.54,1.12-0.96,2.46-1.26,4.02c-0.3,1.56-0.45,3.26-0.45,5.1c0,1.96,0.169,3.73,0.51,5.31
		c0.339,1.581,0.8,2.931,1.38,4.05c0.58,1.12,1.28,1.98,2.1,2.58C254.879,260.392,255.77,260.692,256.73,260.692z"/>
	<path fill="#FFFFFF" d="M326.209,234.832h-3.959v34.2h-12.9l-15.301-22.86v15.12h4.621v7.74h-18.42v-7.74h3.539v-26.46h-3.479
		v-7.74h17.22l14.76,22.02v-14.28h-4.14v-7.74h18.06V234.832z"/>
</g>
<g>
	<path fill="#FFFFFF" d="M181.46,360.242v18.961l-14.521,14.039h-27.96l-14.04-14.399v-52.08l14.04-13.56h28.8l13.681,14.16v17.159
		h-22.2v-10.44h-10.44v37.801h10.44v-11.641H181.46z M174.38,367.082h-8.04v7.201l-4.8,4.92h-15.12l-4.8-4.92v-42.601l4.8-4.319
		h15.6l4.32,4.319v6h8.04v-7.681l-9.72-9.959h-22.44l-10.08,9.959v45.721l10.08,10.561h21.48l10.68-10.561V367.082z"/>
	<path fill="#FFFFFF" d="M228.14,313.203v20.879h-6.6v38.16h8.88v-12.84h21.359v33.84h-59.52v-21h5.52v-38.16h-5.52v-20.879H228.14z
		 M221.06,320.043h-21.6v7.32h5.52v51.84h-5.52v7.08h45.239v-20.041H237.5v12.961h-23.04v-51.84h6.6V320.043z"/>
	<path fill="#FFFFFF" d="M321.737,313.203v20.879h-6.359v45.121l-14.04,14.039h-29.399l-13.92-14.039v-45.121h-6.24v-20.879h33.359
		v20.16h-3.119v38.879h9.6v-38.879h-3.12v-20.16H321.737z M314.657,320.043h-19.799v7.32h3.84v47.279l-4.561,4.561h-14.88
		l-4.319-4.561v-47.279h3.84v-7.32h-19.8v7.32h6.239v48.84l9.721,10.08h23.279l10.08-9.601v-49.319h6.359V320.043z"/>
	<path fill="#FFFFFF" d="M395.177,327.363v20.76l-3.719,3.959l3.719,3.961v23.039l-14.52,14.16h-48.48v-21h5.641v-38.16h-5.641
		v-20.879h49.32L395.177,327.363z M387.978,331.082l-10.801-11.039h-37.68v7.32h5.4v51.6h-5.641v7.32h37.32l11.28-11.16v-16.44
		l-6.24-6.36l6.36-6.359V331.082z M373.938,327.363l4.44,4.56v12.72l-4.201,4.32h-19.68v-21.6H373.938z M373.697,356.043l4.681,4.68
		v13.439l-5.041,5.041h-18.84v-23.16H373.697z M371.177,334.082h-9.479v7.92h9.479V334.082z M371.177,362.763h-9.479v9.479h9.479
		V362.763z"/>
</g>
<g>
	<g>
		<line fill="none" stroke="#FFFFFF" stroke-width="6" stroke-linejoin="bevel" x1="112" y1="290" x2="116" y2="290"/>
		
			<line fill="none" stroke="#FFFFFF" stroke-width="6" stroke-linejoin="bevel" stroke-dasharray="8,8" x1="124" y1="290" x2="401" y2="290"/>
		<line fill="none" stroke="#FFFFFF" stroke-width="6" stroke-linejoin="bevel" x1="405" y1="290" x2="409" y2="290"/>
		<g>
			<circle fill="#FFFFFF" cx="112" cy="289.5" r="11.837"/>
		</g>
		<g>
			<polygon fill="#FFFFFF" points="406,270.375 406,308.624 425.118,289.502 			"/>
		</g>
	</g>
</g>
<g>
	<path fill="none" stroke="#FFFFFF" stroke-width="21" stroke-linejoin="bevel" stroke-miterlimit="10" d="M455.434,290.073
		c0,107.981-87.518,195.5-195.5,195.5c-107.981,0-195.5-87.519-195.5-195.5s87.519-195.5,195.5-195.5
		C367.916,94.574,455.434,182.092,455.434,290.073z"/>
	<path fill="none" stroke="#FFFFFF" stroke-width="5" stroke-linejoin="bevel" stroke-miterlimit="10" d="M435.883,290.073
		c0,97.184-78.766,175.949-175.949,175.949s-175.95-78.766-175.95-175.949s78.767-175.95,175.95-175.95
		S435.883,192.89,435.883,290.073z"/>
</g>
<polygon fill="#FFFFFF" points="259.866,409.063 265.113,419.692 276.844,421.396 268.355,429.672 270.359,441.355 259.866,435.84 
	249.374,441.355 251.377,429.672 242.888,421.396 254.62,419.692 "/>
<g>
</g>
<g>
</g>
<g>
</g>
<g>
</g>
<g>
</g>
<g>
</g>
<g>
</g>
<g>
</g>
<g>
</g>
<g>
</g>
<g>
</g>
<g>
</g>
<g>
</g>
<g>
</g>
<g>
</g>
<g>
</g>
<g>
</g>
</svg>
